<?xml version="1.0" encoding="utf-8"?>
<!-- Generator: Adobe Illustrator 27.0.1, SVG Export Plug-In . SVG Version: 6.00 Build 0)  -->
<svg version="1.1" id="Layer_1" xmlns="http://www.w3.org/2000/svg" xmlns:xlink="http://www.w3.org/1999/xlink" x="0px" y="0px"
	 viewBox="0 0 554.8 208.9" style="enable-background:new 0 0 554.8 208.9;" xml:space="preserve">
<g>
	<path d="M117.9,57.8c-0.4-3.3-1.9-6-4.4-8.2c-2.5-2.1-5.6-3.2-9.4-3.2c-1.8,0-3.5,0.3-5.1,0.9c-1.6,0.6-3,1.5-4.2,2.6
		s-2.3,2.3-3.1,3.6c-0.8,1.3-1.3,2.7-1.4,4.2L117.9,57.8L117.9,57.8z M133.6,80.8c-2.6,5.1-6.3,9.1-11.2,12
		c-4.9,2.9-10.7,4.4-17.4,4.4c-4.8,0-9.2-0.8-13.2-2.4c-4-1.6-7.4-3.8-10.3-6.7s-5.1-6.3-6.7-10.3c-1.6-4-2.4-8.4-2.4-13.1
		c0-4.7,0.8-9,2.4-12.9c1.6-4,3.9-7.4,6.7-10.3c2.9-2.9,6.2-5.2,10.1-6.8c3.9-1.6,8.1-2.4,12.7-2.4c4.7,0,8.9,0.8,12.8,2.4
		c3.9,1.6,7.2,3.9,9.9,6.8c2.8,2.9,4.9,6.4,6.4,10.4c1.5,4,2.3,8.5,2.3,13.3c0,1.1,0,2-0.1,2.8c0,0.7-0.1,1.3-0.2,1.7H90.2
		c0.2,1.8,0.7,3.5,1.5,5c0.8,1.5,1.9,2.8,3.3,3.9c1.4,1.1,2.9,2,4.6,2.6c1.7,0.6,3.5,0.9,5.4,0.9c3.4,0,6.1-0.7,8.1-2
		c2-1.3,3.7-3.2,5.1-5.5L133.6,80.8z"/>
	<path d="M165.6,95.5h-18.2V33.8h18.2v7.9c1.9-3,4.4-5.3,7.4-7c3-1.7,6.6-2.5,10.8-2.5c7.1,0,12.6,2.2,16.7,6.7
		c4,4.5,6.1,10.7,6.1,18.5v38.1h-18.2V61.7c0-4.1-1-7.2-2.9-9.4c-1.9-2.2-4.7-3.3-8.2-3.3c-3.5,0-6.3,1.2-8.4,3.7s-3.2,5.8-3.2,10.2
		L165.6,95.5L165.6,95.5z"/>
	<path d="M21.6,25h10.6c3.8,0,6.8,1,9.3,2.9c2.5,2,3.7,4.8,3.7,8.5c0,3.7-1.2,6.5-3.7,8.5c-2.5,2-5.5,3.1-9.3,3.1H21.6V25z
		 M45.8,61.4l0.2-0.1c5.2-2,9.5-5.1,12.9-9.4c3.4-4.3,5.1-9.5,5.1-15.8c0-4.5-0.8-8.5-2.4-11.9c-1.6-3.5-3.8-6.4-6.6-8.7
		S49,11.2,45,10s-8.2-1.9-13-1.9H3v87.4h18.6v-32h6C33,76.3,40.6,87.9,50,97.8v0l15.8-10.2C57.9,79.9,51.2,71.1,45.8,61.4"/>
	<path d="M65.7,87.6L65.7,87.6C65.7,87.6,65.7,87.6,65.7,87.6L65.7,87.6z"/>
	<path d="M247.1,25h10.6c3.7,0,6.8,1,9.3,2.9s3.7,4.8,3.7,8.5c0,3.7-1.2,6.5-3.7,8.5c-2.5,2-5.5,3.1-9.3,3.1h-10.6L247.1,25
		L247.1,25z M271.3,61.4l0.2-0.1c5.2-2,9.5-5.1,12.9-9.4c3.4-4.3,5.1-9.5,5.1-15.8c0-4.5-0.8-8.5-2.4-11.9c-1.6-3.5-3.8-6.4-6.6-8.7
		s-6.1-4.2-10-5.4c-3.9-1.2-8.2-1.9-13-1.9h-29.1v87.4h18.6v-32h6c5.3,12.8,13,24.3,22.4,34.2v0l15.8-10.2
		C283.4,79.9,276.7,71.1,271.3,61.4"/>
	<path d="M291.2,87.6L291.2,87.6C291.2,87.6,291.2,87.6,291.2,87.6L291.2,87.6z"/>
	<path d="M350.1,63.8c0-2.5-0.5-5-1.6-7.4L326.2,79c2.4,1.2,4.9,1.8,7.5,1.8c2.3,0,4.5-0.4,6.5-1.3c2-0.9,3.7-2.1,5.2-3.6
		c1.5-1.5,2.6-3.3,3.4-5.4C349.7,68.4,350.1,66.2,350.1,63.8 M333.6,46.9c-2.3,0-4.4,0.4-6.4,1.3s-3.8,2.1-5.3,3.6
		c-1.5,1.5-2.7,3.3-3.5,5.4c-0.8,2-1.2,4.2-1.2,6.6c0,2.6,0.5,5.1,1.6,7.5l22.3-22.6C338.9,47.5,336.4,46.9,333.6,46.9 M366.7,37.7
		l-6.1,6.3c2.2,2.7,3.9,5.7,5,9.1c1.2,3.4,1.8,7,1.8,10.7c0,4.6-0.9,8.9-2.5,12.8c-1.7,4-4.1,7.4-7.1,10.3c-3,2.9-6.6,5.2-10.7,6.9
		c-4.1,1.7-8.5,2.5-13.3,2.5c-3.7,0-7.1-0.5-10.4-1.4c-3.2-0.9-6.2-2.3-8.8-4.2l-6.4,6.5l-7.4-7.4l6-6.2c-2.2-2.8-3.8-5.8-5-9.2
		c-1.1-3.4-1.7-6.9-1.7-10.7c0-4.6,0.8-8.9,2.5-12.8c1.7-4,4.1-7.4,7.1-10.3c3-2.9,6.5-5.2,10.6-6.9c4.1-1.7,8.5-2.5,13.3-2.5
		c3.6,0,7,0.5,10.3,1.5c3.3,1,6.2,2.4,8.9,4.1l6.4-6.5L366.7,37.7z"/>
	<path d="M418.7,50.6c-1-0.5-2.5-0.8-4.6-0.7c-5.1,0-9.1,1.8-11.9,5.3c-2.8,3.5-4.2,8.3-4.2,14.4l0,25.2l-18.2,0l-0.1-61.9l18,0
		l0,10.1c1.7-3.6,4-6.4,7.1-8.5c3.1-2,6.6-3.1,10.6-3.1c0.7,0,1.3,0,2,0.1s1,0.2,1.2,0.2L418.7,50.6z"/>
	<path d="M442.5,63.7c0,2.3,0.4,4.4,1.3,6.3s2,3.6,3.3,5c1.4,1.4,3,2.5,4.9,3.4c1.9,0.8,3.9,1.2,6.1,1.2c2.1,0,4.1-0.4,6-1.3
		c1.9-0.8,3.6-2,5-3.4s2.5-3.1,3.3-5c0.8-1.9,1.2-4,1.2-6.3c0-2.3-0.4-4.3-1.3-6.3c-0.8-1.9-2-3.6-3.3-5c-1.4-1.4-3-2.5-5-3.4
		c-1.9-0.8-3.9-1.2-6-1.2c-2.2,0-4.2,0.4-6.1,1.3c-1.9,0.8-3.5,2-4.9,3.4c-1.4,1.4-2.5,3.1-3.3,5C442.9,59.3,442.4,61.4,442.5,63.7
		 M424.4,63.7c0-4.6,0.8-8.9,2.5-12.8c1.7-4,4.1-7.4,7.1-10.3c3-2.9,6.5-5.2,10.6-6.9c4.1-1.7,8.5-2.5,13.3-2.5
		c4.8,0,9.2,0.8,13.3,2.5c4.1,1.7,7.6,4,10.7,6.9c3,2.9,5.4,6.4,7.1,10.3s2.6,8.2,2.6,12.8c0,4.6-0.9,8.9-2.6,12.9
		c-1.7,4-4.1,7.4-7.1,10.3s-6.6,5.2-10.6,6.9c-4.1,1.7-8.5,2.5-13.3,2.5c-4.8,0-9.2-0.8-13.3-2.5c-4.1-1.7-7.6-4-10.7-6.9
		c-3-2.9-5.4-6.4-7.1-10.3C425.3,72.6,424.4,68.3,424.4,63.7"/>
	<path d="M523.9,45.7c-1.7,0-3,0.4-4.1,1.2c-1.1,0.8-1.6,1.8-1.6,3.1c0,2.3,1.7,3.8,5.1,4.8l7.8,2c5.8,1.5,10.3,3.8,13.4,6.9
		c3,3.1,4.6,6.9,4.6,11.3c0,3.1-0.6,5.9-1.9,8.5c-1.2,2.6-3,4.8-5.2,6.7c-2.2,1.9-4.8,3.3-7.9,4.4c-3,1.1-6.4,1.6-10,1.6
		c-6.2,0-11.6-1.3-16.2-4c-4.6-2.7-8-6.4-10-11.1l14.8-8.2c1.2,2.6,2.8,4.6,4.9,6.1c2.1,1.5,4.3,2.2,6.6,2.2c1.9,0,3.5-0.4,4.7-1.3
		c1.2-0.8,1.8-2,1.8-3.5c0-2.2-1.9-3.7-5.7-4.6l-7.3-1.8c-11.8-2.7-17.7-9.1-17.7-19c0-2.9,0.6-5.6,1.7-8.1c1.2-2.5,2.8-4.6,4.9-6.3
		c2.1-1.8,4.6-3.1,7.6-4.2c3-1,6.2-1.5,9.7-1.5c2.7,0,5.3,0.4,7.8,1.1c2.5,0.7,4.8,1.7,7,2.9c2.2,1.2,4.1,2.8,5.8,4.5
		c1.7,1.8,3,3.7,4,5.9l-14.9,7.9c-0.9-2.3-2.3-4.2-4.1-5.6C527.7,46.3,525.8,45.7,523.9,45.7"/>
</g>
<g>
	<path d="M52.8,154.6c0,4.4-0.8,8.6-2.4,12.4c-1.6,3.8-3.8,7.1-6.5,9.9c-2.8,2.8-6,5-9.8,6.5c-3.8,1.6-7.8,2.4-12.1,2.4H3.2v-62.3
		H22c4.3,0,8.3,0.8,12.1,2.4s7,3.8,9.8,6.5c2.8,2.8,4.9,6.1,6.5,9.9C52,146,52.8,150.2,52.8,154.6z M47.1,154.6
		c0-3.7-0.6-7.1-1.9-10.3c-1.3-3.2-3-5.9-5.3-8.2s-4.9-4.1-8-5.5c-3.1-1.3-6.4-2-10.1-2H8.7v52h13.1c3.6,0,7-0.7,10.1-2
		c3.1-1.3,5.8-3.2,8-5.5c2.2-2.3,4-5.1,5.3-8.2C46.4,161.7,47.1,158.3,47.1,154.6z"/>
	<path d="M63.8,129.8c0-1,0.4-1.9,1.1-2.6c0.7-0.7,1.6-1.1,2.6-1.1c1,0,1.9,0.4,2.6,1.1c0.7,0.7,1.1,1.6,1.1,2.6s-0.4,1.9-1.1,2.6
		c-0.7,0.7-1.6,1.1-2.6,1.1c-1,0-1.9-0.4-2.6-1.1C64.2,131.7,63.8,130.8,63.8,129.8z M70.2,142.9v42.8h-5.3v-42.8H70.2z"/>
	<path d="M120,176.9c-1.5,2.7-3.8,4.8-6.9,6.4c-3.1,1.6-6.3,2.4-9.8,2.4c-3,0-5.9-0.6-8.5-1.7s-4.9-2.7-6.8-4.7
		c-1.9-2-3.4-4.3-4.5-7s-1.7-5.6-1.7-8.6s0.6-6,1.7-8.6s2.6-5,4.5-6.9s4.2-3.5,6.8-4.6s5.5-1.7,8.5-1.7c3.6,0,6.9,0.8,9.9,2.4
		c3.1,1.6,5.3,3.8,6.8,6.5v-8h5.2v40.6c0,3.2-0.5,6.1-1.5,8.8s-2.4,5-4.2,6.9c-1.8,1.9-4.1,3.4-6.8,4.4s-5.7,1.6-9,1.6
		c-4.6,0-8.7-1-12.2-2.9s-6.1-4.7-8-8.3l4.3-2.9c1.5,3,3.7,5.2,6.4,6.8c2.7,1.6,5.9,2.4,9.4,2.4c2.6,0,4.8-0.4,6.8-1.2
		s3.7-1.9,5.1-3.4c1.4-1.5,2.5-3.2,3.2-5.2s1.1-4.3,1.1-6.8L120,176.9L120,176.9z M103.6,180.9c2.4,0,4.6-0.4,6.6-1.3
		c2-0.9,3.8-2.1,5.3-3.6c1.5-1.5,2.7-3.4,3.6-5.4c0.9-2.1,1.3-4.3,1.3-6.7c0-2.3-0.4-4.5-1.3-6.6s-2.1-3.9-3.6-5.4
		c-1.5-1.5-3.3-2.8-5.3-3.6c-2-0.9-4.2-1.3-6.6-1.3c-2.3,0-4.5,0.4-6.5,1.3s-3.8,2.1-5.2,3.6c-1.4,1.5-2.6,3.3-3.5,5.4
		c-0.9,2.1-1.3,4.3-1.3,6.7c0,2.4,0.4,4.7,1.3,6.8c0.9,2.1,2,3.9,3.5,5.4c1.4,1.5,3.2,2.7,5.2,3.6
		C99.1,180.5,101.3,180.9,103.6,180.9z"/>
	<path d="M138.7,129.8c0-1,0.4-1.9,1.1-2.6c0.7-0.7,1.6-1.1,2.6-1.1c1,0,1.9,0.4,2.6,1.1c0.7,0.7,1.1,1.6,1.1,2.6s-0.4,1.9-1.1,2.6
		c-0.7,0.7-1.6,1.1-2.6,1.1c-1,0-1.9-0.4-2.6-1.1C139.1,131.7,138.7,130.8,138.7,129.8z M145.1,142.9v42.8h-5.3v-42.8H145.1z"/>
	<path d="M166.8,129.8v13.2h12.4v4.8h-12.4v25.8c0,5.5,2.5,8.2,7.5,8.2c0.9,0,1.8-0.1,2.6-0.4c0.9-0.2,1.6-0.6,2.4-1v5.1
		c-0.6,0.3-1.5,0.6-2.4,0.8c-1,0.3-2.1,0.4-3.4,0.4c-3.7,0-6.7-1.1-8.8-3.2s-3.2-5.2-3.2-9.3v-26.5h-6.9v-4.8h6.9v-13.2L166.8,129.8
		L166.8,129.8z"/>
	<path d="M229.7,142.9v42.8h-5.2v-8.4c-0.8,1.4-1.8,2.7-3,3.8c-1.2,1.1-2.6,2.1-4.1,2.9s-3.1,1.5-4.8,1.9c-1.7,0.4-3.4,0.7-5.2,0.7
		c-3.1,0-5.9-0.6-8.6-1.7s-4.9-2.7-6.9-4.8c-2-2-3.5-4.4-4.6-7.1s-1.7-5.7-1.7-8.8s0.6-6.1,1.7-8.8s2.7-5.1,4.6-7.1s4.3-3.6,6.9-4.7
		s5.5-1.7,8.6-1.7c3.6,0,7,0.8,10.1,2.5c3.1,1.7,5.4,3.9,6.9,6.7v-8.2L229.7,142.9L229.7,142.9z M207.8,181.8c2.4,0,4.6-0.5,6.7-1.4
		c2.1-0.9,3.9-2.2,5.4-3.7s2.7-3.4,3.6-5.6c0.9-2.1,1.3-4.4,1.3-6.9c0-2.4-0.4-4.6-1.3-6.8c-0.9-2.1-2.1-4-3.6-5.6
		c-1.5-1.6-3.4-2.8-5.4-3.7c-2.1-0.9-4.3-1.4-6.7-1.4c-2.3,0-4.5,0.4-6.5,1.3c-2.1,0.9-3.8,2.1-5.3,3.7s-2.7,3.4-3.6,5.6
		c-0.9,2.1-1.3,4.4-1.3,6.9c0,2.5,0.4,4.8,1.3,6.9c0.9,2.1,2.1,4,3.6,5.6c1.5,1.6,3.3,2.8,5.3,3.7
		C203.3,181.4,205.5,181.8,207.8,181.8z"/>
	<path d="M249.6,123.5v62.3h-5.3v-62.3C244.3,123.5,249.6,123.5,249.6,123.5z"/>
	<path d="M327.4,142.9v42.8h-5.2v-8.4c-0.8,1.4-1.8,2.7-3,3.8c-1.2,1.1-2.6,2.1-4,2.9c-1.5,0.8-3.1,1.5-4.8,1.9
		c-1.7,0.4-3.4,0.7-5.2,0.7c-3.1,0-6-0.6-8.6-1.7c-2.6-1.2-4.9-2.7-6.9-4.8c-2-2-3.5-4.4-4.6-7.1s-1.7-5.7-1.7-8.8s0.6-6.1,1.7-8.8
		s2.7-5.1,4.6-7.1s4.3-3.6,6.9-4.7c2.6-1.2,5.5-1.7,8.6-1.7c3.6,0,7,0.8,10.1,2.5c3.1,1.7,5.4,3.9,6.9,6.7v-8.2L327.4,142.9
		L327.4,142.9z M305.5,181.8c2.4,0,4.6-0.5,6.7-1.4c2.1-0.9,3.9-2.2,5.4-3.7c1.5-1.6,2.7-3.4,3.6-5.6c0.9-2.1,1.3-4.4,1.3-6.9
		c0-2.4-0.4-4.6-1.3-6.8c-0.9-2.1-2.1-4-3.6-5.6c-1.5-1.6-3.4-2.8-5.4-3.7s-4.3-1.4-6.7-1.4c-2.3,0-4.5,0.4-6.5,1.3
		c-2,0.9-3.8,2.1-5.3,3.7s-2.7,3.4-3.6,5.6c-0.9,2.1-1.3,4.4-1.3,6.9c0,2.5,0.4,4.8,1.3,6.9c0.9,2.1,2,4,3.6,5.6
		c1.5,1.6,3.3,2.8,5.3,3.7C301,181.4,303.2,181.8,305.5,181.8z"/>
	<path d="M342.8,173.4c0.7,2.5,1.9,4.6,3.6,6.2c1.7,1.6,4,2.4,6.7,2.4c1.1,0,2.2-0.2,3.3-0.5c1.1-0.3,2-0.8,2.8-1.4s1.4-1.4,1.9-2.4
		s0.7-2,0.7-3.2c0-1.9-0.6-3.4-1.8-4.5c-1.2-1.1-3-2.1-5.2-2.9l-5.1-1.8c-6.8-2.4-10.2-6.4-10.2-12c0-1.7,0.3-3.3,1-4.7
		s1.6-2.6,2.8-3.6c1.2-1,2.5-1.8,4.1-2.3s3.3-0.8,5.2-0.8c3.4,0.1,6.3,1,8.7,2.9c2.4,1.9,4.1,4.3,5,7.3l-4.7,1.9
		c-0.6-2.1-1.8-3.9-3.3-5.3s-3.5-2.1-5.8-2.1c-2.1,0-4,0.6-5.5,1.7s-2.3,2.7-2.3,4.7c0,3.5,2.2,6,6.8,7.6l4.9,1.7
		c3.6,1.2,6.2,2.8,8,4.7s2.7,4.3,2.7,7.2c0,2-0.4,3.7-1.2,5.3c-0.8,1.6-1.8,2.9-3.1,4s-2.8,1.9-4.5,2.4c-1.7,0.6-3.5,0.8-5.3,0.8
		c-4-0.1-7.3-1.2-9.9-3.3c-2.6-2.1-4.3-4.9-5.1-8.3L342.8,173.4z"/>
</g>
</svg>
